<svg version="1.1" xmlns="http://www.w3.org/2000/svg" xmlns:xlink="http://www.w3.org/1999/xlink" width="304.3003" height="304.30025" viewBox="0,0,304.3003,304.30025"><g transform="translate(-92.84989,-32.8499)"><g data-paper-data="{&quot;isPaintingLayer&quot;:true}" fill-rule="nonzero" stroke-linecap="butt" stroke-linejoin="miter" stroke-miterlimit="10" stroke-dasharray="" stroke-dashoffset="0" style="mix-blend-mode: normal"><path d="M94.8499,275.23519c0,-59.99896 0,-148.11906 0,-181.81815c0,-26.16557 22.73163,-58.56714 54.69562,-58.56714c60.91162,0 155.35022,0 189.899,0c25.1397,0 55.70568,31.10369 55.70568,56.54696c0,34.37139 0,127.20919 0,187.87876c0,32.57375 -30.56593,55.87453 -55.70568,55.87453c-33.79375,0 -124.88841,0 -185.85858,0c-34.07175,0 -58.73599,-25.26921 -58.73599,-59.91496z" fill="#83a08b" stroke="#83a08b" stroke-width="4"/><path d="M148.71436,164.4483c10.35858,-13.14732 26.81684,-27.8246 56.32452,-27.8246c31.4618,0 67.8059,-4.99733 95.79297,-0.16452c8.04461,1.38914 33.40617,10.50443 44.37205,26.74354c7.81219,11.5689 3.30084,30.85841 2.74311,34.95168c-0.25443,1.86729 -4.82314,11.64516 -15.15667,17.52863c-8.67351,4.93832 -22.36629,6.31196 -31.61897,5.98336c-18.81893,-0.66833 -36.0047,-8.41165 -46.86886,-3.5308c-0.87916,0.39498 -10.37195,15.40495 -22.97849,27.61388c-8.28351,8.02226 -15.54307,15.0983 -30.9188,15.0983c-9.51695,0 -19.13724,-7.29512 -22.50684,-14.6921c-1.83485,-4.0279 -3.48486,-7.17511 -4.30109,-10.8701c-0.82759,-3.74644 -0.83704,-8.01703 -5.0324,-8.62028c-12.55813,-1.8057 -22.49683,0.05326 -30.26961,-1.99216c-6.81094,-1.7923 -10.07157,-17.87723 -6.70303,-31.0169c3.65995,-14.27635 14.39336,-25.74455 17.12211,-29.20794z" fill="#1a120f" stroke="none" stroke-width="0"/><path d="M328.48906,183.60816c0,9.46401 -15.6665,13.46911 -36.12157,13.45247c-16.69481,-0.01357 -37.04329,-3.78845 -50.84216,-0.53516c-6.39928,1.50871 -7.6385,19.02403 -13.372,28.22029c-5.64479,9.05394 -15.77383,9.80253 -23.30983,9.80253c-6.49422,0 -10.02927,-4.83949 -11.14759,-11.10825c-1.43507,-8.0443 0.21105,-18.14273 -4.85772,-20.20591c-14.52591,-5.91259 -14.57369,-5.9089 -18.70251,-5.83188c-2.28362,0.0426 -12.52756,6.28023 -12.52756,0.09868c0,-6.23272 16.9246,-27.72098 33.41094,-38.13541c15.98034,-10.09479 32.11121,-11.51273 53.7334,-12.80749c21.76235,-1.30314 48.67834,2.2302 64.78216,11.05804c14.19357,7.78066 18.95447,20.50102 18.95447,25.99209z" fill="#fff3dd" stroke="none" stroke-width="0"/><path d="M326.17359,174.34631c0,1.42736 1.91917,4.09168 2.37124,6.93752c0.31282,1.96922 -0.55954,4.02534 -1.27293,5.81866c-2.1217,5.33359 -9.49448,9.00877 -11.22614,9.60438c-4.28095,1.47245 -10.64067,0.06993 -15.72454,0.35957c-18.0393,1.02775 -39.98237,0.43448 -58.66192,0.43448c-3.36622,0 -4.01191,7.44608 -7.81881,16.13028c-0.79049,1.80323 -5.10378,13.04881 -12.02185,17.85351c-7.29311,5.06518 -17.22325,4.56887 -18.65825,4.1968c-6.47349,-1.67839 -10.41359,-8.36237 -11.57288,-15.66373c-0.90568,-5.70415 0.04238,-10.39582 -3.39232,-14.76113c-1.2141,-1.54304 -6.98533,-3.73845 -8.84804,-4.31087c-10.31081,-3.16853 -21.73904,2.42999 -21.73904,-1.5925c0,-3.43697 20.32037,-21.5752 36.77887,-13.78807c7.86313,3.72034 6.8765,33.70434 16.90006,33.07145c6.82596,-0.43098 12.67826,-21.39378 20.51509,-31.34393c3.67685,-4.66838 12.37487,-0.72637 15.73327,-0.88295c9.65428,-0.45013 18.30416,0.83021 27.28095,0.02832c12.23761,-1.0932 24.6952,-1.55798 33.36059,-4.54027c11.62296,-4.00017 17.99665,-10.30923 17.99665,-7.55152z" fill="#d1c1a7" stroke="none" stroke-width="0"/><path d="M314.1332,169.02075c0,6.01033 0.12553,-2.08392 -13.42967,-2.08392c-4.74766,0 -9.71579,-0.72989 -12.98332,-2.28019c-6.06174,-2.876 -7.40152,-7.44475 1.40603,-7.44475c13.5552,0 25.00697,5.79851 25.00697,11.80885z" fill="#ffffff" stroke="none" stroke-width="0"/><path d="M288.20005,137.0674c0,21.35585 -30.93428,41.44673 -67.37989,41.44673c-36.44561,0 -53.95021,-8.0505 -53.95021,-29.40634c0,-13.70758 4.15911,-24.58033 16.77593,-34.59039c7.03968,-5.5852 15.78619,-14.26581 28.83863,-14.26581c12.86224,0 38.75775,-2.93777 48.90572,0.79148c18.60664,6.83772 26.80983,22.20529 26.80983,36.02433z" fill="#791901" stroke="none" stroke-width="0"/><path d="M257.36771,162.66167c-7.16649,5.75808 -14.66433,10.29536 -28.21189,10.29536c-11.82667,0 -34.12321,-0.54977 -41.93768,-5.19417c-4.70041,-2.79361 -2.14925,-21.54729 8.28865,-33.83898c7.29681,-8.59274 20.10531,-12.37007 29.9443,-12.37007c11.67267,0 24.80269,0.82839 32.81568,5.25342c8.40298,4.64041 11.40961,13.05136 11.40961,20.44818c0,6.26388 -6.82523,11.00045 -12.30866,15.40625z" fill="#ff6201" stroke="none" stroke-width="0"/><path d="M216.4208,170.1785c0,-2.68778 21.309,-8.80425 33.93309,-15.98429c10.82796,-6.15849 13.06333,-13.58902 14.97069,-14.75671c3.67871,-2.25212 4.35181,4.63869 4.35181,8.97566c0,4.98063 -15.12054,15.02526 -29.42807,20.46485c-4.36499,1.65952 -8.61119,2.19754 -12.25988,2.60276c-6.50059,0.72196 -11.56764,1.40489 -11.56764,-1.30228z" fill="#f13600" stroke="none" stroke-width="0"/><path d="M209.9375,151.6548c-7.417,0 -7.40948,-3.83567 -7.40948,-8.5672c0,-4.73153 3.69721,-13.19812 11.1142,-13.19812c7.417,0 11.1142,2.90949 11.1142,7.64102c0,4.73153 -7.40194,14.12431 -14.81894,14.12431z" fill="#ffe8e4" stroke="none" stroke-width="0"/></g></g></svg>