<svg version="1.1" xmlns="http://www.w3.org/2000/svg" xmlns:xlink="http://www.w3.org/1999/xlink" width="274.25006" height="98.2271" viewBox="0,0,274.25006,98.2271"><g transform="translate(-194.42616,-248.95911)"><g data-paper-data="{&quot;isPaintingLayer&quot;:true}" fill-rule="nonzero" stroke-linecap="butt" stroke-linejoin="miter" stroke-miterlimit="10" stroke-dasharray="" stroke-dashoffset="0" style="mix-blend-mode: normal"><path d="M254.08923,282.18064c12.18505,0 150.0863,0 174.49647,0c2.38047,0 3.68163,1.77234 3.68163,4.54696c0,8.75983 0,27.50991 0,32.01816c0,1.91094 -1.13122,3.78913 -3.21382,3.78913c-12.97854,0 -62.90537,0 -106.25582,0c-33.65587,0 -63.34785,0 -68.70847,0c-1.69664,0 -2.86783,-1.91238 -2.86783,-3.22076c0,-4.00916 0,-24.41724 0,-33.1549c0,0 1.1712,-3.97859 2.86784,-3.97859z" fill="#000000" stroke="#000000" stroke-width="15"/><path d="M254.08923,282.18064c12.18505,0 150.0863,0 174.49647,0c2.38047,0 3.68163,1.77234 3.68163,4.54696c0,8.75983 0,27.50991 0,32.01816c0,1.91094 -1.13122,3.78913 -3.21382,3.78913c-23.05464,0 -162.69892,0 -174.96429,0c-1.69664,0 -2.86783,-1.91238 -2.86783,-3.22076c0,-4.00916 0,-24.41724 0,-33.1549c0,0 1.1712,-3.97859 2.86784,-3.97859z" fill="#000000" stroke="#01f101" stroke-width="7"/><path d="M251.2214,286.15923c0,-2.44691 1.17119,-3.97859 2.86783,-3.97859c12.18505,0 150.0863,0 174.49647,0c2.38047,0 3.68163,1.77234 3.68163,4.54696c0,8.75983 0,27.50991 0,32.01816c0,1.91094 -1.13122,3.78913 -3.21382,3.78913c-23.05464,0 -162.69892,0 -174.96429,0c-1.69664,0 -2.86783,-1.91238 -2.86783,-3.22076c0,-4.00916 0,-24.41724 0,-33.1549z" fill="#000000" stroke="none" stroke-width="0"/><path d="M468.67622,298.07266c0,27.12466 -61.39297,49.11355 -137.12503,49.11355c-75.73207,0 -137.12503,-21.98888 -137.12503,-49.11355c0,-27.12466 61.39297,-49.11355 137.12503,-49.11355c75.73206,0 137.12503,21.98888 137.12503,49.11355z" fill="none" stroke="none" stroke-width="NaN"/><text transform="translate(260.25982,310.81252) scale(0.67335,0.67335)" font-size="40" xml:space="preserve" fill="#01f101" fill-rule="nonzero" stroke="none" stroke-width="1" stroke-linecap="butt" stroke-linejoin="miter" stroke-miterlimit="10" stroke-dasharray="" stroke-dashoffset="0" font-family="Sans Serif" font-weight="normal" text-anchor="start" style="mix-blend-mode: normal"><tspan x="0" dy="0">フリープレイ</tspan></text></g></g></svg>