<svg version="1.1" xmlns="http://www.w3.org/2000/svg" xmlns:xlink="http://www.w3.org/1999/xlink" width="190.98767" height="140.69554" viewBox="0,0,190.98767,140.69554"><g transform="translate(-150.71463,63.03072)"><g data-paper-data="{&quot;isPaintingLayer&quot;:true}" fill-rule="nonzero" stroke="none" stroke-width="0" stroke-linecap="butt" stroke-linejoin="miter" stroke-miterlimit="10" stroke-dasharray="" stroke-dashoffset="0" style="mix-blend-mode: normal"><path d="M166.77841,-6.2149c9.01327,-11.43983 23.33404,-24.21092 49.00945,-24.21092c27.37574,0 58.9997,-4.34831 83.35198,-0.14315c6.99983,1.20873 29.06759,9.14018 38.60929,23.27026c6.79759,10.0664 2.87215,26.85071 2.38685,30.41238c-0.22139,1.62478 -4.19674,10.13276 -13.18822,15.25212c-7.54705,4.29696 -19.4615,5.4922 -27.5125,5.20628c-16.37485,-0.58153 -31.32864,-7.3192 -40.78183,-3.07224c-0.76498,0.34368 -9.02491,13.40425 -19.99419,24.02756c-7.2077,6.98038 -13.52443,13.13743 -26.90326,13.13743c-8.28095,0 -16.65182,-6.34768 -19.58379,-12.78398c-1.59655,-3.50478 -3.03227,-6.24325 -3.74249,-9.45836c-0.72011,-3.25988 -0.72833,-6.97583 -4.37882,-7.50073c-10.92716,-1.57119 -19.57508,0.04634 -26.33838,-1.73343c-5.92638,-1.55953 -8.76354,-15.55545 -5.83248,-26.98862c3.18462,-12.42223 12.52404,-22.40101 14.8984,-25.4146z" fill="#1a120f"/><path d="M323.20511,10.45659c0,8.23488 -13.63183,11.71983 -31.43033,11.70535c-14.52659,-0.01181 -32.23234,-3.29643 -44.2391,-0.46566c-5.56818,1.31277 -6.64646,16.55331 -11.63533,24.55522c-4.91168,7.87807 -13.72522,8.52944 -20.2825,8.52944c-5.65079,0 -8.72673,-4.21097 -9.69981,-9.66558c-1.24869,-6.99956 0.18364,-15.78647 -4.22683,-17.58169c-12.63938,-5.1447 -12.68095,-5.14149 -16.27355,-5.07447c-1.98704,0.03707 -10.90056,5.46459 -10.90056,0.08586c0,-5.42325 14.72654,-24.12075 29.07174,-33.18262c13.90491,-8.78374 27.94081,-10.01753 46.75484,-11.14413c18.93599,-1.1339 42.3563,1.94056 56.36866,9.62189c12.3502,6.77016 16.49278,17.83848 16.49278,22.6164z" fill="#fff3dd"/><path d="M321.19036,2.39762c0,1.24198 1.66992,3.56028 2.06328,6.03652c0.27219,1.71347 -0.48687,3.50255 -1.10761,5.06297c-1.84615,4.6409 -8.2614,7.83877 -9.76816,8.35702c-3.72497,1.28122 -9.25873,0.06085 -13.68234,0.31287c-15.69647,0.89427 -34.78971,0.37805 -51.04328,0.37805c-2.92904,0 -3.49087,6.47903 -6.80335,14.03538c-0.68783,1.56904 -4.44093,11.35411 -10.46053,15.53481c-6.34593,4.40735 -14.9864,3.97549 -16.23503,3.65175c-5.63275,-1.46041 -9.06114,-7.27632 -10.06987,-13.62942c-0.78806,-4.96333 0.03688,-9.04568 -2.95175,-12.84405c-1.05642,-1.34264 -6.07812,-3.25292 -7.69891,-3.751c-8.97171,-2.75702 -18.91571,2.1144 -18.91571,-1.38568c0,-2.9906 17.68129,-18.77315 32.00226,-11.99736c6.84192,3.23717 5.98342,29.32703 14.70519,28.77634c5.93945,-0.37501 11.03169,-18.61529 17.85072,-27.27318c3.19932,-4.06208 10.7677,-0.63203 13.68993,-0.76828c8.40044,-0.39167 15.92693,0.72239 23.73787,0.02464c10.64827,-0.95122 21.48794,-1.35564 29.02793,-3.95061c10.11344,-3.48065 15.65936,-8.97033 15.65936,-6.57078z" fill="#d1c1a7"/><path d="M310.7137,-2.23629c0,5.22975 0.10923,-1.81327 -11.68551,-1.81327c-4.13106,0 -8.45396,-0.6351 -11.29713,-1.98405c-5.27448,-2.50248 -6.44026,-6.47787 1.22342,-6.47787c11.79474,0 21.75922,5.04544 21.75922,10.27519z" fill="#ffffff"/><path d="M288.14858,-30.03974c0,18.58229 -26.91673,36.06389 -58.62901,36.06389c-31.71228,0 -46.9435,-7.00495 -46.9435,-25.58723c0,-11.92733 3.61895,-21.38799 14.59718,-30.09801c6.12541,-4.85983 13.73598,-12.41306 25.09325,-12.41306c11.19177,0 33.72414,-2.55623 42.55415,0.68869c16.19013,5.94968 23.32794,19.32141 23.32794,31.34572z" fill="#791901"/><path d="M261.32055,-7.76949c-6.23575,5.01026 -12.75982,8.95826 -24.54791,8.95826c-10.2907,0 -29.6915,-0.47837 -36.49108,-4.51958c-4.08995,-2.43079 -1.87012,-18.74886 7.21217,-29.44419c6.34915,-7.47677 17.49416,-10.76352 26.05532,-10.76352c10.1567,0 21.58147,0.7208 28.55379,4.57114c7.31165,4.03774 9.9278,11.35633 9.9278,17.7925c0,5.45037 -5.93881,9.57178 -10.71009,13.40538z" fill="#ff6201"/><path d="M225.69157,-1.22891c0,-2.33871 18.54152,-7.66081 29.52607,-13.90835c9.42169,-5.35866 11.36675,-11.82416 13.02639,-12.8402c3.20094,-1.95963 3.78662,4.03625 3.78662,7.80996c0,4.33378 -13.15678,13.07387 -25.60614,17.807c-3.79809,1.44399 -7.49282,1.91214 -10.66764,2.26473c-5.65633,0.6282 -10.06531,1.22243 -10.06531,-1.13315z" fill="#f13600"/><path d="M220.05028,-17.34686c-6.45373,0 -6.44718,-3.33752 -6.44718,-7.45455c0,-4.11703 3.21704,-11.48403 9.67076,-11.48403c6.45373,0 9.67076,2.53162 9.67076,6.64865c0,4.11703 -6.44062,12.28993 -12.89435,12.28993z" fill="#ffe8e4"/></g></g></svg>