<svg version="1.1" xmlns="http://www.w3.org/2000/svg" xmlns:xlink="http://www.w3.org/1999/xlink" width="187.25007" height="132.96315" viewBox="0,0,187.25007,132.96315"><g transform="translate(-146.37496,-113.51843)"><g data-paper-data="{&quot;isPaintingLayer&quot;:true}" fill-rule="nonzero" stroke-linejoin="miter" stroke-miterlimit="10" stroke-dasharray="" stroke-dashoffset="0" style="mix-blend-mode: normal"><path d="M146.37839,180.36616c-0.43778,-36.71619 41.12315,-66.64448 92.82893,-66.8467c51.70579,-0.20222 93.9765,29.3982 94.41429,66.11439c0.43778,36.71619 -41.12315,66.64448 -92.82893,66.8467c-51.70579,0.20222 -93.9765,-29.3982 -94.41429,-66.11439z" fill="none" stroke="none" stroke-width="NaN" stroke-linecap="butt"/><g stroke-linecap="butt"><path d="M206.32737,150.2115l65.32231,-0.20423l-32.67878,14.33788z" fill="#b7c5c5" stroke="none" stroke-width="0"/><path d="M272.0292,149.80272l-33.27238,59.69064l1.1271,-47.80612z" data-paper-data="{&quot;index&quot;:null}" fill="#a8aebb" stroke="none" stroke-width="0"/><path d="M240.15434,161.64061l-0.17494,49.04895l-33.65205,-60.47805z" fill="#abbbbb" stroke="none" stroke-width="0"/><path d="M244.44223,205.81498l-4.22795,4.4873l-34.2491,-58.46271z" fill="#7d1d10" stroke="none" stroke-width="0"/><path d="M273.93676,149.66841l-31.28696,59.20268l-4.33693,-4.46052z" data-paper-data="{&quot;index&quot;:null}" fill="#7d1d10" stroke="none" stroke-width="0"/><path d="M208.22035,148.80758c10.89562,-0.03406 42.74207,-0.13363 64.55831,-0.20184c1.48834,-0.00465 2.34692,0.58983 1.89693,1.41282c-2.69707,4.93256 -28.4189,51.97437 -33.21002,60.73667c-0.4947,0.90476 -1.08444,0.84621 -1.66067,-0.15922c-5.20506,-9.08219 -31.46543,-54.90319 -34.45423,-60.11827c-0.54432,-0.94976 0.43783,-1.66256 2.86969,-1.67017z" fill="none" stroke="#000000" stroke-width="6.5"/><path d="M208.22035,148.80758c10.89562,-0.03406 42.74207,-0.13363 64.55831,-0.20184c1.48834,-0.00465 2.34692,0.58983 1.89693,1.41282c-2.69707,4.93256 -28.4189,51.97437 -33.21002,60.73667c-0.4947,0.90476 -1.08444,0.84621 -1.66067,-0.15923c-5.20508,-9.08219 -31.46543,-54.90319 -34.45423,-60.11826c-0.54432,-0.94976 0.43783,-1.66256 2.86969,-1.67017z" fill="none" stroke="#00f000" stroke-width="3.5"/></g><path d="" fill="#5d626d" stroke="none" stroke-width="0" stroke-linecap="butt"/><path d="" fill="none" stroke="#6a7477" stroke-width="6" stroke-linecap="round"/><path d="" fill="none" stroke="#303044" stroke-width="6" stroke-linecap="round"/><path d="" fill="none" stroke="#4a5757" stroke-width="6" stroke-linecap="round"/><text transform="translate(212.40634,187.95905) scale(0.68984,0.68984)" font-size="40" xml:space="preserve" fill="#ffffff" fill-rule="nonzero" stroke="#000000" stroke-width="10" stroke-linecap="butt" stroke-linejoin="miter" stroke-miterlimit="10" stroke-dasharray="" stroke-dashoffset="0" font-family="Sans Serif" font-weight="normal" text-anchor="start" style="mix-blend-mode: normal"><tspan x="0" dy="0">使用</tspan></text><text transform="translate(212.4064,187.95903) scale(0.68984,0.68984)" font-size="40" xml:space="preserve" fill="#00f000" fill-rule="nonzero" stroke-opacity="0" stroke="#000000" stroke-width="0" stroke-linecap="butt" stroke-linejoin="miter" stroke-miterlimit="10" stroke-dasharray="" stroke-dashoffset="0" font-family="Sans Serif" font-weight="normal" text-anchor="start" style="mix-blend-mode: normal"><tspan x="0" dy="0">使用</tspan></text></g></g></svg>