<svg version="1.1" xmlns="http://www.w3.org/2000/svg" xmlns:xlink="http://www.w3.org/1999/xlink" width="92.14482" height="68.64947" viewBox="0,0,92.14482,68.64947"><g transform="translate(-194.11115,-145.35576)"><g data-paper-data="{&quot;isPaintingLayer&quot;:true}" fill-rule="nonzero" stroke-linecap="butt" stroke-linejoin="miter" stroke-miterlimit="10" stroke-dasharray="" stroke-dashoffset="0" style="mix-blend-mode: normal"><path d="M206.32738,150.2115l65.32231,-0.20423l-32.67878,14.33788z" fill="#b7c5c5" stroke="none" stroke-width="0"/><path d="M272.02921,149.80273l-33.27238,59.69064l1.1271,-47.80612z" data-paper-data="{&quot;index&quot;:null}" fill="#a8aebb" stroke="none" stroke-width="0"/><path d="M240.15435,161.64062l-0.17494,49.04895l-33.65205,-60.47805z" fill="#abbbbb" stroke="none" stroke-width="0"/><path d="M244.44224,205.81499l-4.22795,4.4873l-34.2491,-58.46271z" fill="#7d1d10" stroke="none" stroke-width="0"/><path d="M273.93676,149.66842l-31.28696,59.20268l-4.33693,-4.46052z" data-paper-data="{&quot;index&quot;:null}" fill="#7d1d10" stroke="none" stroke-width="0"/><path d="M208.22036,148.80758c10.89562,-0.03406 42.74207,-0.13363 64.55831,-0.20184c1.48834,-0.00465 2.34692,0.58983 1.89693,1.41282c-2.69707,4.93256 -28.4189,51.97437 -33.21002,60.73667c-0.4947,0.90476 -1.08444,0.84621 -1.66067,-0.15922c-5.20506,-9.08219 -31.46543,-54.90319 -34.45423,-60.11827c-0.54432,-0.94976 0.43783,-1.66256 2.86969,-1.67017z" fill="none" stroke="#000000" stroke-width="6.5"/><path d="M208.22036,148.80758c10.89562,-0.03406 42.74207,-0.13363 64.55831,-0.20184c1.48834,-0.00465 2.34692,0.58983 1.89693,1.41282c-2.69707,4.93256 -28.4189,51.97437 -33.21002,60.73667c-0.4947,0.90476 -1.08444,0.84621 -1.66067,-0.15923c-5.20508,-9.08219 -31.46543,-54.90319 -34.45423,-60.11826c-0.54432,-0.94976 0.43783,-1.66256 2.86969,-1.67017z" fill="none" stroke="#dfdfdf" stroke-width="3.5"/><text transform="translate(195.9467,184.23554) scale(0.36711,0.36711)" font-size="40" xml:space="preserve" fill="#ffffff" fill-rule="nonzero" stroke="#000000" stroke-width="10" stroke-linecap="butt" stroke-linejoin="miter" stroke-miterlimit="10" stroke-dasharray="" stroke-dashoffset="0" font-family="Sans Serif" font-weight="normal" text-anchor="start" style="mix-blend-mode: normal"><tspan x="0" dy="0">カスタマイズ</tspan></text><text transform="translate(195.9468,184.23553) scale(0.36711,0.36711)" font-size="40" xml:space="preserve" fill="#ffffff" fill-rule="nonzero" stroke-opacity="0" stroke="#000000" stroke-width="0" stroke-linecap="butt" stroke-linejoin="miter" stroke-miterlimit="10" stroke-dasharray="" stroke-dashoffset="0" font-family="Sans Serif" font-weight="normal" text-anchor="start" style="mix-blend-mode: normal"><tspan x="0" dy="0">カスタマイズ</tspan></text></g></g></svg>